/* XPM */
static char *a4a80badbc0d42d2d0f12b807c1c858cmqZtIyhsb3Zd7os3[] = {
/* columns rows colors chars-per-pixel */
"33 33 12 1 ",
"  c None",
". c black",
"X c #242326",
"o c #774133",
"O c #414044",
"+ c #674647",
"@ c #675546",
"# c #727177",
"$ c #835658",
"% c #8B6E4E",
"& c #918F98",
"* c white",
/* pixels */
"          OXX    OXX             ",
"                                 ",
"               OOOO              ",
"              OOOOOO             ",
"             OOOOXXXX            ",
"             OOOX%%%X            ",
"            OOOOX.%oX            ",
"             OOOX%%oX            ",
"             OOOOX%%X            ",
"              OOOOOXX            ",
"             OOOOXXX             ",
"            OOOOXXXXX            ",
"            OOOOXX#OXX           ",
"           OOOOXX&&&OX           ",
"           OOOOXX&&&OXX          ",
"           OOOXX&&&X#XX          ",
"           OOOXX&&X##OX          ",
"          OOOOXOOX###OX          ",
"          OOOXXOOO&##O***        ",
"          OOOXXOO&&***XX         ",
"          OOOXXXXXXXXOXX         ",
"          OOXX###@#@#OXX         ",
"          OOXX#######OXX         ",
"          OOXX######+OXX         ",
"          OOXX++X$$++XOX         ",
"          OOXX+XXX$$+XOX         ",
"           OOX+XXX$$+XOX         ",
"           OOXXXXX$$+OX          ",
"           OOXXXXXX$+OX          ",
"           +OXXX   $+O           ",
"           ++      $+            ",
"           OX      OX            ",
"           OXX     OXX           "
};
