/* XPM */
static char *_458a272cfcb4462ab7f15d2d94591bbGHX000hZGMOAWVLc[] = {
/* columns rows colors chars-per-pixel */
"32 32 13 1 ",
"  c None",
". c black",
"X c #242326",
"o c #774133",
"O c #414044",
"+ c #674647",
"@ c #675546",
"# c #727177",
"$ c #835658",
"% c #8B6E4E",
"& c #918F98",
"* c #B69B83",
"= c white",
/* pixels */
"                                ",
"                OOOO            ",
"               OOOOOO           ",
"              OOOXXXXX          ",
"             OOOX%%%%X          ",
"            OOOOX.%o.X          ",
"            OXXOX%%o%X          ",
"              XOO%%%%X          ",
"               OOOOOXX          ",
"              OOOOXXXX          ",
"             OOOOOXXXX          ",
"             OOOXX##OXX         ",
"            OOOOX&&&OXX         ",
"            OOOX&&&&&OXX        ",
"            OOOX&&&&XOXX        ",
"           OOOXX&&&X##XX        ",
"           OOOX##&X###OX        ",
"           OOXX##X&###OX        ",
"           OOXO#X##*#*OX        ",
"          OOOXOXXXXXXXOX        ",
"          OOXX&####@#@OXX       ",
"          OOXX=#######OXX       ",
"         OOOXX==#####+OOX       ",
"         OOXXX+=++X$++OOX       ",
"        OOOXXX+$=XX$$+OX        ",
"       OOOXXXXX++XX$$+O         ",
"            XX+$+XXX$+          ",
"              +++   $+          ",
"             +++    $+          ",
"             OX     $+          ",
"             OXX    OX          ",
"                    OXX         "
};
