/* XPM */
static char *_4bef6e186384a518f86d31e5526e783hqOErbthyT8dAsyf[] = {
/* columns rows colors chars-per-pixel */
"50 50 146 2 ",
"   c None",
".  c #151414",
"X  c #1F1912",
"o  c #1C1B1E",
"O  c #321E16",
"+  c #1F1E21",
"@  c #1F2023",
"#  c #232225",
"$  c #282526",
"%  c #262528",
"&  c #28272A",
"*  c #2C2A2D",
"=  c #332C26",
"-  c #332A2D",
";  c #3E342B",
":  c #2F2E31",
">  c #312F32",
",  c #3B2F31",
"<  c #333236",
"1  c #3C3134",
"2  c #363539",
"3  c #39373A",
"4  c #3A393D",
"5  c #40352A",
"6  c #5C3D2D",
"7  c #443235",
"8  c #473D33",
"9  c #473639",
"0  c #493639",
"q  c #403A3E",
"w  c #543B3D",
"e  c #54432F",
"r  c #4F4131",
"t  c #47413F",
"y  c #4D423A",
"u  c #57493B",
"i  c #744233",
"p  c #7E4F3B",
"a  c #67523A",
"s  c #6D563D",
"d  c #71563D",
"f  c #3E3D41",
"g  c #403F43",
"h  c #4C3E41",
"j  c #5B3F40",
"k  c #414044",
"l  c #454449",
"z  c #49464A",
"x  c #4A494E",
"c  c #514245",
"v  c #5C4143",
"b  c #524B47",
"n  c #5F4F40",
"m  c #534D4E",
"M  c #4E4C52",
"N  c #504F54",
"B  c #5C4E50",
"V  c #535154",
"C  c #5E5551",
"Z  c #56555A",
"A  c #58575C",
"S  c #5A595D",
"D  c #664546",
"F  c #664749",
"G  c #694749",
"H  c #64494B",
"J  c #6B494B",
"K  c #714B4C",
"L  c #615346",
"P  c #6A5641",
"I  c #6E5943",
"U  c #665749",
"Y  c #67584A",
"T  c #68594B",
"R  c #744F50",
"E  c #625B5A",
"W  c #6B5A5E",
"Q  c #745153",
"!  c #7C5253",
"~  c #7B575A",
"^  c #755C5D",
"/  c #7D6346",
"(  c #6D625B",
")  c #7B6B5F",
"_  c #5D5C62",
"`  c #6D5E61",
"'  c #636166",
"]  c #6A6166",
"[  c #66646B",
"{  c #6B666B",
"}  c #69686E",
"|  c #726B6D",
" . c #6E6D73",
".. c #726D72",
"X. c #6F7076",
"o. c #727177",
"O. c #787477",
"+. c #74737A",
"@. c #7B777A",
"#. c #865E45",
"$. c #805557",
"%. c #845759",
"&. c #87585A",
"*. c #866147",
"=. c #8C6549",
"-. c #84694A",
";. c #8C6D4D",
":. c #8E7150",
">. c #856C6D",
",. c #946F71",
"<. c #847374",
"1. c #857D7D",
"2. c #9A7C7D",
"3. c #7D7C83",
"4. c #818186",
"5. c #898286",
"6. c #87868E",
"7. c #838189",
"8. c #89868D",
"9. c #908784",
"0. c #898790",
"q. c #8A8891",
"w. c #8F8D96",
"e. c #908E97",
"r. c #918F98",
"t. c #939192",
"y. c #929099",
"u. c #93919A",
"i. c #92909A",
"p. c #949399",
"a. c #96939D",
"s. c #97949E",
"d. c #A18E80",
"f. c #A39082",
"g. c #A2A0A6",
"h. c #BCAAAB",
"j. c #B6B6B9",
"k. c #C2ACAD",
"l. c #CBC2C2",
"z. c #D8CCCC",
"x. c #DBDBDC",
"c. c #E6E1E1",
"v. c #ECEDED",
"b. c #EEEEEF",
"n. c #E9E8E9",
"m. c #FEFBFB",
/* pixels */
"                                                                                                    ",
"                                                                                                    ",
"                                                  k k k k k k                                       ",
"                                                k k k k k k k k k                                   ",
"                                              k k k 4 2 2 < < 2 <                                   ",
"                                            k k g g 2 * * * * * & #                                 ",
"                                          k k k f > 8 I P P s I u &                                 ",
"                                        k k k k 4 & ; a -.;.*.s e &                                 ",
"                                      k k f g k f & . X P =.i O . #                                 ",
"                                      g 2 : > 4 f & = e / #.i 6 5 $                                 ",
"                                      g : # # 2 f : u :.:.#.p =.I =                                 ",
"                                            # < f f L ;.;.;.;.;.I *                                 ",
"                                              3 k k b U U Y Y n 8 &                                 ",
"                                              k k k k k f f f & # #                                 ",
"                                            k k f l g f > & & % # #                                 ",
"                                          k k k f k l f & + @ # # #                                 ",
"                                        k k k k k g f f : & : & % #                                 ",
"                                        g k g k f > & : M _ A l < # # #                             ",
"                                        k k k k 4 % : M X.7.3.Z 2 % # %                             ",
"                                      k k k k g 4 * Z 0.r.r.0._ 4 & # #                             ",
"                                      k k k g 2 4 _ 3.i.i.i.r.7.[ 4 & # #                           ",
"                                      g k k g : 2 3.s.r.r.r.r.7.[ l : # # #                         ",
"                                      k k g g : 3 3.a.r.r.r.0.M < f < # # #                         ",
"                                    k k k f < # 2 3.a.i.a.3.Z M V A 4 # # %                         ",
"                                  k g k k 4 % & l 3.r.e.7._ 4 _ O.X.z & # #                         ",
"                                  k k k k 4 & l [ +.6.6.M k `  .+.X.V 2 & #                         ",
"                                  k k g 4 : % M +.+.} _ Z _ X.+.+.X.A 4 & #                         ",
"                                  k k g : @ & N +. .x 4 +.0.@.X.+.O.S 4 & @                         ",
"                                  k k k : % 3 _ } k l ' +.5.f.1.1.f.( 4 & #                         ",
"                                  k k g : * 4 M x & 2 Z Z E | E S ) C 4 %                           ",
"                                k k k g : * k 4 * * * * : : = - - - 3 f & #                         ",
"                                k k 4 * # 3 } [ A A A A A m y m m y k 4 % # #                       ",
"                                l g 3 # @ x g.p.+.+.+.+.+.} ( | o.( m 4 & # %                       ",
"                                g g 3 # + S x.j.+.....+.+.X...o.o.| Z 4 & # #                       ",
"                              k g g 3 % o _ v.b.j.7.X.+.+.+.+.+...W m q 2 * %                       ",
"                            k k g f 2 & o N l.m.n.5.] { ` [ | | ` F c g k < #                       ",
"                            k k g > # # @ , ^ l.c.>.F B 1 h ~ R J D c k k < #                       ",
"                          k k k g * @ # # , w 2.k.h.<.7 $ 7 $.! K F c f 2 *                         ",
"                        k k k k 4 * # # @ - j G ,.z.t.% @ 9 ! &.! F c 4 &                           ",
"                      k g k k 3 * % # # # $ = 0 Q >.B # @ 0 $.&.! G c f                             ",
"                      k k k k 2 # # # % # & , v K D 7 # @ , v Q ! G c                               ",
"                                      # # - D Q ! J 0 # # # * G ! G                                 ",
"                                            D J K G j         Q ! J                                 ",
"                                            G D D D           &.! G                                 ",
"                                        F D D D G             &.! G                                 ",
"                                        c h 1 0               &.! J                                 ",
"                                        k 4 % @               Q J j                                 ",
"                                        k 4 % # #             z f -                                 ",
"                                                              k 2 % #                               ",
"                                                              k 4 % # #                             "
};
